<svg width="135" height="14" viewBox="0 0 135 14" fill="none" xmlns="http://www.w3.org/2000/svg">
<path d="M0.316008 13.4207C0.158004 13.4207 0 13.3415 0 13.1829C0 13.1037 -2.94306e-08 13.1037 0.079002 13.0244L4.89813 0.896358C5.05613 0.658553 5.13513 0.579285 5.37214 0.579285H6.79417C7.03118 0.579285 7.11018 0.658553 7.26819 0.896358L12.1663 13.1037C12.1663 13.1829 12.1663 13.1829 12.1663 13.2622C12.1663 13.4207 12.0873 13.5 11.9293 13.5H10.0333C9.79625 13.5 9.71725 13.4207 9.63825 13.1829L8.76923 11.122H3.39709L2.60707 13.1829C2.52807 13.4207 2.37006 13.5 2.21206 13.5H0.316008V13.4207ZM7.9002 8.82319L6.08316 3.90855L4.26611 8.82319H7.9002Z" fill="black"/>
<path d="M14.3783 13.4207C14.1413 13.4207 14.0623 13.2622 14.0623 13.1037V0.896358C14.0623 0.658553 14.2203 0.579285 14.3783 0.579285H19.4344C20.5404 0.579285 21.5675 1.05489 22.2785 1.84758C22.9895 2.64026 23.3845 3.67075 23.3845 4.70123C23.3845 5.73172 22.9895 6.76221 22.1995 7.55489C21.4885 8.34758 20.4614 8.82318 19.2764 8.82318H16.4323V13.1037C16.4323 13.3415 16.3533 13.4207 16.1163 13.4207H14.3783ZM18.8814 6.60367C19.4344 6.60367 19.9084 6.44514 20.3034 6.0488C20.6194 5.73172 20.8565 5.25611 20.8565 4.70123C20.8565 4.14636 20.6984 3.67075 20.3034 3.35367C19.9084 2.95733 19.4344 2.7988 18.8814 2.7988H16.5113V6.60367H18.8814Z" fill="black"/>
<path d="M25.2016 13.4207C24.9646 13.4207 24.8856 13.2622 24.8856 13.1037V0.896358C24.8856 0.658553 25.0436 0.579285 25.2016 0.579285H30.2577C31.3637 0.579285 32.3908 1.05489 33.1018 1.84758C33.8128 2.64026 34.2078 3.67075 34.2078 4.70123C34.2078 5.73172 33.8128 6.76221 33.0228 7.55489C32.3118 8.34758 31.2847 8.82318 30.0997 8.82318H27.2556V13.1037C27.2556 13.3415 27.1766 13.4207 26.9396 13.4207H25.2016ZM29.7837 6.60367C30.3367 6.60367 30.8107 6.44514 31.2057 6.0488C31.5217 5.73172 31.7587 5.25611 31.7587 4.70123C31.7587 4.14636 31.6007 3.67075 31.2057 3.35367C30.8107 2.95733 30.3367 2.7988 29.7837 2.7988H27.4136V6.60367H29.7837Z" fill="black"/>
<path d="M41.555 13.4207C41.318 13.4207 41.239 13.2621 41.239 13.1036V0.975541C41.239 0.737736 41.318 0.658468 41.555 0.658468H43.4511C43.6091 0.5792 43.7671 0.737736 43.7671 0.975541V13.1036C43.7671 13.3414 43.6881 13.4207 43.4511 13.4207H41.555Z" fill="black"/>
<path d="M46.9271 13.4207C46.6901 13.4207 46.5321 13.2622 46.5321 13.0244V0.975626C46.5321 0.737821 46.6901 0.579285 46.9271 0.579285H48.9812C49.1392 0.579285 49.3762 0.658553 49.4552 0.81709L55.1434 8.98172V0.81709C55.2224 0.658553 55.3804 0.579285 55.4594 0.579285H57.1974C57.4344 0.579285 57.5924 0.737821 57.5924 0.975626V13.1037C57.5924 13.3415 57.4344 13.5 57.1974 13.5H55.4594C55.2224 13.5 55.1434 13.4207 54.9854 13.1829L49.0602 4.46343V13.0244C49.0602 13.2622 48.9812 13.4207 48.6652 13.4207H46.9271Z" fill="black"/>
<path d="M68.4947 13.4207C68.2577 13.4207 68.1787 13.3415 68.1787 13.1037V2.87806H64.9396C64.7026 2.87806 64.6236 2.7988 64.6236 2.56099V0.896358C64.6236 0.658553 64.7026 0.579285 64.9396 0.579285H74.0248C74.2618 0.579285 74.3408 0.658553 74.3408 0.896358V2.56099C74.3408 2.7988 74.2618 2.87806 74.0248 2.87806H70.7067V13.1037C70.7067 13.3415 70.6277 13.4207 70.3907 13.4207H68.4947Z" fill="black"/>
<path d="M76.553 13.4207C76.316 13.4207 76.237 13.2622 76.237 13.1037V0.975612C76.237 0.737807 76.395 0.658539 76.553 0.658539H78.449C78.607 0.658539 78.765 0.737807 78.765 0.975612V5.4939H84.5322V0.975612C84.5322 0.737807 84.6112 0.658539 84.8482 0.658539H86.7442C86.9023 0.658539 87.0603 0.737807 87.0603 0.975612V13.1829C87.0603 13.4207 86.9813 13.5 86.6652 13.5H84.8482C84.6112 13.5 84.5322 13.3415 84.5322 13.1829V7.87195H78.765V13.1037C78.765 13.3415 78.686 13.4207 78.37 13.4207H76.553Z" fill="black"/>
<path d="M89.9043 13.4207C89.6673 13.4207 89.5883 13.3415 89.5883 13.1037V0.896358C89.5883 0.658553 89.6673 0.579285 89.9043 0.579285H98.3575C98.5945 0.579285 98.6735 0.658553 98.6735 0.896358V2.56099C98.6735 2.7988 98.5155 2.87806 98.3575 2.87806H92.1163V5.49392H96.8564C97.0934 5.49392 97.2515 5.57319 97.2515 5.81099V7.47562C97.2515 7.71343 97.0934 7.7927 96.8564 7.7927H92.1163V10.9634H98.5155C98.7525 10.9634 98.9105 11.0427 98.9105 11.2805V12.9451C98.9105 13.1829 98.7525 13.2622 98.5155 13.2622H89.9043V13.4207Z" fill="black"/>
<path d="M105.389 13.4207C105.231 13.4207 105.073 13.3415 105.073 13.1829C105.073 13.1037 105.073 13.1037 105.152 13.0244L110.05 0.817073C110.129 0.579268 110.287 0.5 110.445 0.5H111.867C112.104 0.5 112.183 0.579268 112.341 0.817073L117.239 13.0244C117.239 13.1037 117.239 13.1037 117.239 13.1829C117.239 13.3415 117.16 13.4207 117.002 13.4207H115.106C114.869 13.4207 114.79 13.3415 114.711 13.1037L113.842 11.0427H108.549L107.759 13.1037C107.68 13.3415 107.522 13.4207 107.364 13.4207H105.389ZM113.052 8.82317L111.235 3.90854L109.418 8.82317H113.052Z" fill="black"/>
<path d="M119.53 13.4207C119.293 13.4207 119.214 13.2622 119.214 13.1037V0.975612C119.214 0.737807 119.293 0.658539 119.53 0.658539H121.426C121.663 0.658539 121.742 0.817075 121.742 0.975612V13.1037C121.742 13.3415 121.663 13.4207 121.426 13.4207H119.53Z" fill="black"/>
<path d="M124.823 13.4207C124.586 13.4207 124.507 13.3415 124.507 13.1037V0.896358C124.507 0.658553 124.665 0.579285 124.823 0.579285H130.274C131.459 0.579285 132.486 1.05489 133.197 1.84758C133.908 2.64026 134.303 3.67075 134.303 4.7805C134.303 5.49392 134.066 6.12806 133.671 6.84148C133.276 7.47562 132.723 7.95123 132.091 8.34758L134.461 13.0244C134.461 13.1037 134.461 13.1037 134.461 13.1829C134.461 13.3415 134.382 13.4207 134.224 13.4207H132.012C131.775 13.4207 131.696 13.3415 131.617 13.1037L129.563 8.98172H126.956V13.1037C126.956 13.3415 126.877 13.4207 126.64 13.4207H124.823ZM129.721 6.68294C130.274 6.68294 130.827 6.44514 131.222 6.12806C131.617 5.81099 131.854 5.25611 131.854 4.7805C131.854 4.30489 131.617 3.75002 131.222 3.43294C130.827 3.11587 130.353 2.87806 129.721 2.87806H127.035V6.76221H129.721V6.68294Z" fill="black"/>
</svg>
