<svg xmlns="http://www.w3.org/2000/svg" width="40" height="40" fill="none" viewBox="0 0 40 40">
  <circle cx="20" cy="20" r="20" fill="#ED0000"/>
  <mask id="a" width="40" height="40" x="0" y="0" maskUnits="userSpaceOnUse" style="mask-type:alpha">
    <circle cx="20" cy="20" r="20" fill="#C4C4C4"/>
  </mask>
  <g mask="url(#a)">
    <path fill="#fff" d="M29 19.71c-.25.052-.444.106-.642.126-.425.042-.852.065-1.278.1a1.666 1.666 0 0 0-.252.046c-.857.21-1.113.813-.603 1.535.263.372.622.678.949 1.002.387.385.8.746 1.179 1.14.39.405.546.906.56 1.471.03 1.3-.137 2.577-.404 3.843-.335 1.584-.762 3.14-1.485 4.599-.06.122-.128.241-.2.36-.15.242-.346.252-.453-.008-.27-.653-.574-1.303-.742-1.985a24.003 24.003 0 0 1-.675-4.997.597.597 0 0 0-.262-.51c-1.265-.963-2.334-2.132-3.401-3.3-.132-.145-.266-.288-.416-.449-.143.096-.279.18-.411.273-.42.296-.83.603-1.257.887-.2.13-.414.237-.638.317-.428.155-.614.073-.83-.326-.463-.857-.946-1.705-1.383-2.575-.182-.36-.3-.762-.392-1.158-.076-.327.007-.395.336-.407.948-.037 1.897-.07 2.845-.107.349-.014.378-.046.319-.374-.212-1.187-.433-2.371-.64-3.558-.06-.353-.071-.715-.132-1.069a.629.629 0 0 0-.19-.348c-1.171-.985-2.372-1.934-3.522-2.944a12.14 12.14 0 0 1-2.168-2.525c-.403-.622-.74-1.273-.817-2.026a2.45 2.45 0 0 1 .009-.535c.04-.336.23-.45.527-.302.857.426 1.717.848 2.558 1.304 2.301 1.248 4.573 2.544 6.716 4.054.188.133.36.29.557.412.679.417.977 1.057 1.059 1.812.102.96.157 1.926.267 2.885.056.44.151.873.286 1.295.099.32.248.367.581.282.123-.032.244-.074.36-.127.702-.317 1.401-.266 2.089.033.853.37 1.501.967 1.996 1.854Z"/>
  </g>
</svg>
