<svg xmlns="http://www.w3.org/2000/svg" width="40" height="40" fill="none" viewBox="0 0 40 40">
  <circle cx="20" cy="20" r="20" fill="#1D5A98"/>
  <mask id="a" width="40" height="40" x="0" y="0" maskUnits="userSpaceOnUse" style="mask-type:alpha">
    <circle cx="20" cy="20" r="20" fill="#1D5A98"/>
  </mask>
  <g mask="url(#a)">
    <path fill="#fff" fill-rule="evenodd" d="m-7.075 21.93-.987.002c-.965.06-1.262.357-1.408.46-.309.216-.53.533-.664.74-.237.378-.758 1.306-1.295 2.451h2.8l25.222.003s1.175.006 1.8-.02c.403-.016.631-.042.89-.11a2.25 2.25 0 0 0 1.098-.653c.322-.312.64-.837.64-.837l2.288-4.154s.08-.127.178-.218c.072-.064.134-.13.378-.14l-.066-.003h4.767l.193-.006a1.05 1.05 0 0 0 .431-.095.68.68 0 0 0 .16-.126c.053-.064.11-.15.11-.15l.868-1.559-5.409-.002h-.346l1.068-1.86s.29-.49.711-.667c.287-.178.792-.17.792-.17h4.323s.58.026.92-.218c.041-.029.14-.097.212-.183.094-.112.163-.242.163-.242l.74-1.316h-6.834c-1.926.021-3.356-.033-4.436.616-.502.318-.783.753-1.061 1.046-.846 1.13-1.074 1.659-2.553 3.95l-1.027 1.593c-.337.466-.625.921-.996 1.217-.203.144-.378.312-.833.454-.253.079-.931.157-1.371.18-.447.022-.928.02-.928.02l-16.845-.005h-3.77l.077.003Z" clip-rule="evenodd"/>
  </g>
</svg>
