<svg xmlns="http://www.w3.org/2000/svg" width="40" height="40" fill="none" viewBox="0 0 40 40">
  <circle cx="20" cy="20" r="20" fill="#F8EB51"/>
  <mask id="a" width="40" height="40" x="0" y="0" maskUnits="userSpaceOnUse" style="mask-type:alpha">
    <circle cx="20" cy="20" r="20" fill="#C4C4C4"/>
  </mask>
  <g mask="url(#a)">
    <path fill="#231F20" d="M31.297 17.962h1.06l.348-1.64h2.023l-.35 1.64h1.336l-.284 1.334h-1.335l-.443 2.08c-.099.468.002.534.546.534.247 0 .45-.01.72-.02l-.269 1.26a11.98 11.98 0 0 1-1.556.095c-1.316 0-1.791-.323-1.554-1.44l.534-2.509h-1.059l.283-1.334Zm-2.745 0h2.022l-1.098 5.17h-2.022l1.098-5.17Zm.386-1.812h2.022l-.26 1.22h-2.022l.26-1.22Zm-5.741 1.812-1.1 5.17h1.968l1.099-5.17h-1.968Zm4.294-.23c-.902 0-2.34.89-2.718 2.473l-.097.357h.034c.287-.687 1.006-1.055 1.976-1.055.26 0 .558.035.797.09l.392-1.847a4.424 4.424 0 0 0-.384-.018Zm-7.148.23h2.021l-1.098 5.17h-2.022l1.099-5.17Zm.384-1.812h2.023l-.26 1.22h-2.022l.26-1.22Zm-5.382 5.722c.926 0 1.528-.458 1.71-1.316.183-.86-.225-1.316-1.15-1.316-.944 0-1.55.514-1.72 1.316-.17.8.216 1.316 1.16 1.316Zm-2.631-3.91h1.964l-.145.686h.019c.54-.524 1.319-.82 2.14-.82 1.83 0 2.807 1.01 2.426 2.804-.318 1.497-1.682 2.708-3.58 2.708-.896 0-1.52-.296-1.783-.677h-.018L13.239 25h-2.021l1.496-7.038Zm-5.67 3.558c-.011.19.033.343.193.44.16.104.424.16.862.16.449 0 .944-.085 1.023-.457.059-.277-.126-.354-.61-.41l-1.756-.22c-1.151-.143-1.663-.563-1.476-1.44.297-1.402 1.592-1.84 3.528-1.84 1.374 0 3.057.247 2.86 1.716h-2.27c.027-.22-.086-.362-.27-.439-.182-.085-.442-.114-.7-.114-.582 0-.954.133-1.029.486-.034.162.07.305.572.363l1.705.19c1.36.153 1.955.582 1.74 1.593-.26 1.22-1.544 1.792-3.69 1.792-1.431 0-3.313-.256-3.028-1.82h2.346Z"/>
  </g>
</svg>
